<svg xmlns="http://www.w3.org/2000/svg" width="39.613" height="50" viewBox="0 0 39.613 50">
  <path id="Path_2561" data-name="Path 2561" d="M454.5,644.625s1.156-.932.4-1.6a3.79,3.79,0,0,1,.089-4.486s3.241-2.753,5.507.577a5.658,5.658,0,0,1,0,2.176,1.318,1.318,0,0,0,.133.844s.622,1.021-.354.976c0,0-.046.534-.179.622,0,0-.045.356-.177.444,0,0-.044.889-.4.889l-.977.088a4.7,4.7,0,0,1,1.6,2.088l.619,1.376a11.1,11.1,0,0,1,1.778,2.932s.8-1.245,1.022-1.555a2.433,2.433,0,0,0,.267-1.244c0-.355-.4-1.954-.134-2.309a1.8,1.8,0,0,0,.178-1.065s.265-.8.533.044l.133.577s.4-.221.534-.31,1.33-1.821,1.686-1.644c0,0,.666-.489.666.312s-.266.932-.266.932.4.045.133.622c0,0-.444.976-.576,1.376a8.607,8.607,0,0,1-.977,2.042c-.355.4-.267.134-.533,1.067a19.806,19.806,0,0,1-1.732,4.352s-.178.711-1.243.754c0,0-.844-.221-.977-.843a15.877,15.877,0,0,0-2.22-3.242s-.977,1.554-1.687,1.821c0,0-1.11,3.509-1.686,4.8s-.134.312-.134.312a17.229,17.229,0,0,1-.89,3.064s2.844-.357,6.617,2.753c0,0,3.73,1.778,2.753,3.775,0,0-2.4,2.932-2.753,3.33s-5.284,4.574-5.017,5.684a1.307,1.307,0,0,1,.266.844,2.59,2.59,0,0,0,.49,1.953c.488.445,3.019,1.911,1.686,2.444,0,0-2.575.044-3.11-.844a8.6,8.6,0,0,0-2.086-1.556s-2.62-.975-1.554-2.308c0,0,.843-1.465,1.242-1.288a11.611,11.611,0,0,0,2.088-2.4c.489-.977,2.753-5.64,3.553-6.039a15.4,15.4,0,0,0-2.088-.222,17.7,17.7,0,0,1-5.64-1.111s-5.284,5.019-7.15,5.864c0,0-.488.8-.754.887a6.525,6.525,0,0,1-2.265,1.155,15.276,15.276,0,0,0-2,1.2c-.444.4-4.441,3.552-4.841,3.732a20.769,20.769,0,0,0-1.955,2.708s.668.667-.043.976a11.1,11.1,0,0,0-2,1.733c-.356.576-.845,1.332-.666,1.776s-1.022,2.088-1.6-.089a21.97,21.97,0,0,1,.4-3.464c.31-1.2.488-1.422.31-1.909s-.222-1.732.755-1.953a7.4,7.4,0,0,1,1.822-.179,27.786,27.786,0,0,0,2.353-2.93,16.145,16.145,0,0,1,3.952-3.641c.934-.49,3.332-1.467,3.953-2.31s3.02-4.884,4.262-5.24c0,0-.221-4.042,2.133-4.973a3.9,3.9,0,0,0,1.909-2.088c.622-1.554.666-7.327,1.332-8.26,0,0-.178-.71-.044-.888a27.554,27.554,0,0,1-3.686-.4.711.711,0,0,0-1.154.445s-1.244,3.109-1.555,4.04a13.032,13.032,0,0,0,.045,2.221,4.934,4.934,0,0,0,.665,1.687c.267.267.534.755.178.8,0,0-.8-.176-.976-.71,0,0-.133-.8-.756.09,0,0-2.22,4.042-2.087,2.4,0,0-.933,1.066-.489-.177,0,0-.711.177-.265-.667,0,0,1.242-2.4.443-1.642l-.711.756s-.754.444-.266-.311a8.631,8.631,0,0,0,1.111-1.51,6.675,6.675,0,0,1,1.066-1.6c.4-.444.31-1.732.355-2.22s.533-5.241,1.732-5.773a18.8,18.8,0,0,1,2.664-.844,16.223,16.223,0,0,1,5.2-.355A8.7,8.7,0,0,0,454.5,644.625Z" transform="translate(-427.811 -637.472)" fill="#0097cf"/>
</svg>
