<svg xmlns="http://www.w3.org/2000/svg" width="30" height="30" viewBox="0 0 30 30">
  <g id="Group_4195" data-name="Group 4195" transform="translate(-750 -658)">
    <ellipse id="Ellipse_158" data-name="Ellipse 158" cx="15" cy="15" rx="15" ry="15" transform="translate(750 658)" fill="#fe5656"/>
    <g id="Group_3737" data-name="Group 3737" transform="translate(755.398 664.855)">
      <path id="Path_41" data-name="Path 41" d="M13.265,12.544l-.015.017a4.141,4.141,0,0,1-3.033,1.12l-.007-.007a10.428,10.428,0,0,1-6.88-3.33A10.427,10.427,0,0,1,0,3.463,4.14,4.14,0,0,1,1.12.431L1.137.416A1.626,1.626,0,0,1,3.394.5c1.218,1.263,1.95,2.525.725,3.78L3.042,5.362A11.192,11.192,0,0,0,5.253,8.351l.077.076a11.2,11.2,0,0,0,2.989,2.211L9.4,9.562c1.255-1.226,2.518-.493,3.781.725A1.626,1.626,0,0,1,13.265,12.544Z" transform="translate(19.347 12.48) rotate(135)" fill="#fff"/>
      <g id="Group_3176" data-name="Group 3176" transform="translate(5.012)">
        <g id="Group_3175" data-name="Group 3175" transform="translate(2.168 4.268) rotate(-45)">
          <line id="Line_22" data-name="Line 22" x2="5.358" transform="translate(0 2.057)" fill="none" stroke="#fff" stroke-linecap="round" stroke-width="1.5"/>
          <path id="Path_569" data-name="Path 569" d="M0,0,2.23,2.229,0,4.459" transform="translate(3.806 0)" fill="none" stroke="#fff" stroke-linecap="round" stroke-width="1.5"/>
        </g>
        <path id="Path_582" data-name="Path 582" d="M1062.972,6231.326l3.526,3.525" transform="translate(-1062.972 -6229.274)" fill="none" stroke="#fff" stroke-linecap="round" stroke-width="1.5"/>
      </g>
    </g>
  </g>
</svg>
