<svg xmlns="http://www.w3.org/2000/svg" width="30" height="30" viewBox="0 0 30 30">
  <g id="Group_4193" data-name="Group 4193" transform="translate(-492 -658)">
    <ellipse id="Ellipse_158" data-name="Ellipse 158" cx="15" cy="15" rx="15" ry="15" transform="translate(492 658)" fill="#23d691"/>
    <path id="Path_41" data-name="Path 41" d="M11.15,10.544l-.012.014a3.481,3.481,0,0,1-2.549.942l-.006-.006A8.766,8.766,0,0,1,2.8,8.694,8.765,8.765,0,0,1,0,2.911,3.48,3.48,0,0,1,.942.362L.956.35a1.367,1.367,0,0,1,1.9.069C3.876,1.48,4.492,2.541,3.462,3.6l-.9.911A9.408,9.408,0,0,0,4.416,7.02l.064.064A9.411,9.411,0,0,0,6.993,8.942l.911-.9c1.055-1.03,2.116-.414,3.178.609A1.367,1.367,0,0,1,11.15,10.544Z" transform="translate(501 667)" fill="#fff"/>
  </g>
</svg>
