<svg xmlns="http://www.w3.org/2000/svg" width="30" height="30" viewBox="0 0 30 30">
  <g id="Group_3980" data-name="Group 3980" transform="translate(-621 -673)">
    <ellipse id="Ellipse_158" data-name="Ellipse 158" cx="15" cy="15" rx="15" ry="15" transform="translate(621 673)" fill="#0097cf"/>
    <g id="Group_3979" data-name="Group 3979" transform="translate(626.402 678.534)">
      <path id="Union_98" data-name="Union 98" d="M11.472,18.521l-.008-.008a11.707,11.707,0,0,1-7.725-3.739A11.709,11.709,0,0,1,0,7.049a4.648,4.648,0,0,1,1.258-3.4l.019-.017a1.825,1.825,0,0,1,2.534.092C5.178,5.137,6,6.554,4.624,7.964L3.416,9.181A12.565,12.565,0,0,0,5.9,12.537l.086.086A12.568,12.568,0,0,0,9.34,15.1L10.557,13.9c1.409-1.376,2.827-.554,4.245.814a1.826,1.826,0,0,1,.091,2.534l-.016.019A4.639,4.639,0,0,1,11.5,18.521Zm4.212-7.161a.14.14,0,0,1-.14-.14c0-.992.631-1.539,1.777-1.539s1.776.546,1.776,1.539a.14.14,0,0,1-.139.14Zm.144-.281h2.986c-.055-.742-.557-1.118-1.493-1.118S15.883,10.337,15.828,11.079Zm-5.754-.907a.235.235,0,0,1-.069-.164,1.223,1.223,0,0,0-.323-.819L9.67,9.177a1.222,1.222,0,0,0-.819-.324.233.233,0,0,1,0-.466A1.692,1.692,0,0,1,10,8.849l.012.012h0a1.689,1.689,0,0,1,.461,1.147.231.231,0,0,1-.231.233A.236.236,0,0,1,10.074,10.172Zm1.505.048a.234.234,0,0,1-.233-.235A2.4,2.4,0,0,0,8.889,7.528a.233.233,0,0,1,0-.465,2.87,2.87,0,0,1,2.926,2.926.232.232,0,0,1-.232.231Zm1.277-.079a.235.235,0,0,1-.225-.241A3.538,3.538,0,0,0,8.975,6.244.235.235,0,0,1,8.8,6.175a.239.239,0,0,1-.069-.157.231.231,0,0,1,.224-.24A4.007,4.007,0,0,1,13.1,9.917a.231.231,0,0,1-.231.224ZM16.4,8.466a.923.923,0,1,1,1.846,0,.927.927,0,1,1-1.846,0Zm.278,0a.65.65,0,1,0,1.289,0,.643.643,0,0,0-.644-.669A.636.636,0,0,0,16.676,8.466ZM8.168,3.844a.14.14,0,0,1-.14-.14c0-.992.631-1.539,1.777-1.539s1.776.546,1.776,1.539a.14.14,0,0,1-.139.14Zm.144-.281H11.3c-.055-.742-.557-1.117-1.493-1.117S8.367,2.821,8.312,3.563ZM8.882.949a.923.923,0,1,1,1.846,0,.927.927,0,1,1-1.846,0Zm.278,0a.65.65,0,1,0,1.289,0A.642.642,0,0,0,9.8.281.635.635,0,0,0,9.16.949Z" transform="translate(0)" fill="#fff"/>
      <g id="Group_3087" data-name="Group 3087" transform="translate(4.719 1.242)">
        <path id="Path_45" data-name="Path 45" d="M2871.252,4072.716a5.855,5.855,0,0,1,3.1-1.583" transform="translate(-2871.252 -4070.314)" fill="none" stroke="#fff" stroke-linecap="round" stroke-width="0.5"/>
        <path id="Path_46" data-name="Path 46" d="M0,2.011A7.385,7.385,0,0,1,5.973.019" transform="translate(9.091 0) rotate(60)" fill="none" stroke="#fff" stroke-linecap="round" stroke-width="0.5"/>
        <path id="Path_49" data-name="Path 49" d="M0,.987A6.293,6.293,0,0,1,1.755,0" transform="translate(12.62 12.111) rotate(150)" fill="none" stroke="#fff" stroke-linecap="round" stroke-width="0.5"/>
      </g>
    </g>
  </g>
</svg>
