<svg xmlns="http://www.w3.org/2000/svg" width="16.999" height="17" viewBox="0 0 16.999 17">
  <path id="Union_78" data-name="Union 78" d="M327.606,157a1.061,1.061,0,0,1-1.058-.956l-.436-4.356h-.581A.531.531,0,0,1,325,151.1l.483-4.834a1.059,1.059,0,0,1,1.057-.956h.581a.535.535,0,0,1,.376.155l.686.686.686-.686a.535.535,0,0,1,.376-.155h.581a1.059,1.059,0,0,1,1.057.957l.484,4.833a.531.531,0,0,1-.529.584h-.581l-.436,4.356a1.059,1.059,0,0,1-1.057.956Zm5.756-2.982-1.849-1.062a.521.521,0,0,1-.226-.277,1.589,1.589,0,0,0,.737-.451l0,0a1.6,1.6,0,0,0,.4-1.225l-.483-4.833a2.066,2.066,0,0,0-.289-.834,5.07,5.07,0,0,1,.326-.465l-.665-1.158a.531.531,0,0,1,.2-.725l1.849-1.062a.533.533,0,0,1,.726.2l.663,1.154a4.722,4.722,0,0,1,1.749,0l.662-1.153a.531.531,0,0,1,.726-.2l1.849,1.062a.531.531,0,0,1,.2.725l-.666,1.158a4.738,4.738,0,0,1,.865,1.51h1.338a.531.531,0,0,1,.531.531v2.125a.531.531,0,0,1-.531.531h-1.338a4.636,4.636,0,0,1-.868,1.508l.666,1.158a.533.533,0,0,1-.2.726l-1.849,1.063a.532.532,0,0,1-.726-.2l-.662-1.153a4.744,4.744,0,0,1-1.749,0l-.662,1.153a.527.527,0,0,1-.322.248.515.515,0,0,1-.138.019A.53.53,0,0,1,333.361,154.018Zm.138-6.049a2.125,2.125,0,1,0,2.125-2.125A2.127,2.127,0,0,0,333.5,147.969Zm-7.437-5.844a2.125,2.125,0,1,1,2.125,2.125A2.125,2.125,0,0,1,326.062,142.125Z" transform="translate(-325 -140)" fill="#fff"/>
</svg>
