<svg xmlns="http://www.w3.org/2000/svg" width="3.901" height="17.208" viewBox="0 0 3.901 17.208">
  <g id="Group_3856" data-name="Group 3856" transform="translate(-38 1)">
    <g id="Icon_feather-more-vertical" data-name="Icon feather-more-vertical" transform="translate(39 0)">
      <path id="Path_9" data-name="Path 9" d="M19.318,18.367a.95.95,0,1,1-.95-.95A.95.95,0,0,1,19.318,18.367Z" transform="translate(-17.417 -10.763)" fill="#0097cf" stroke="#0097cf" stroke-linecap="round" stroke-linejoin="round" stroke-width="2"/>
      <path id="Path_10" data-name="Path 10" d="M19.318,7.284a.95.95,0,1,1-.95-.95A.95.95,0,0,1,19.318,7.284Z" transform="translate(-17.417 -6.333)" fill="#0097cf" stroke="#0097cf" stroke-linecap="round" stroke-linejoin="round" stroke-width="2"/>
      <path id="Path_11" data-name="Path 11" d="M19.318,29.45a.95.95,0,1,1-.95-.95A.95.95,0,0,1,19.318,29.45Z" transform="translate(-17.417 -15.193)" fill="#0097cf" stroke="#0097cf" stroke-linecap="round" stroke-linejoin="round" stroke-width="2"/>
    </g>
  </g>
</svg>
