<svg xmlns="http://www.w3.org/2000/svg" width="17" height="17" viewBox="0 0 17 17">
  <path id="Union_95" data-name="Union 95" d="M3268-13599.5a8.51,8.51,0,0,1,8.5-8.5,8.51,8.51,0,0,1,8.5,8.5,8.51,8.51,0,0,1-8.5,8.5A8.51,8.51,0,0,1,3268-13599.5Zm1.546,0a6.962,6.962,0,0,0,6.954,6.954,6.962,6.962,0,0,0,6.954-6.954,6.963,6.963,0,0,0-6.954-6.955A6.962,6.962,0,0,0,3269.545-13599.5Zm6.181,4.122v-4.637a.773.773,0,0,1,.773-.772.773.773,0,0,1,.773.772v4.637a.772.772,0,0,1-.773.771A.772.772,0,0,1,3275.726-13595.38Zm-.257-7.985a1.032,1.032,0,0,1,1.03-1.031,1.032,1.032,0,0,1,1.03,1.031,1.033,1.033,0,0,1-1.03,1.031A1.033,1.033,0,0,1,3275.469-13603.365Z" transform="translate(-3267.999 13608.002)" fill="#fff"/>
</svg>
