<svg id="see" xmlns="http://www.w3.org/2000/svg" width="20" height="13.603" viewBox="0 0 20 13.603">
  <g id="Group_541" data-name="Group 541">
    <path id="Path_53" data-name="Path 53" d="M18.655,87.647l0,0-5.154-5.2a1.879,1.879,0,0,0-1.339-.56h0a1.879,1.879,0,0,0-1.338.554l-.63.63a.27.27,0,0,1-.382,0l-.63-.63a1.879,1.879,0,0,0-1.338-.554h0a1.879,1.879,0,0,0-1.339.56l-5.154,5.2,0,0a4.593,4.593,0,1,0,7.357,5.3,2.424,2.424,0,0,0,2.6,0,4.593,4.593,0,1,0,7.357-5.3ZM4.595,93.865a2.973,2.973,0,1,1,2.973-2.973A2.976,2.976,0,0,1,4.595,93.865ZM10,91.973a1.081,1.081,0,1,1,1.081-1.081A1.081,1.081,0,0,1,10,91.973Zm5.405,1.892a2.973,2.973,0,1,1,2.973-2.973A2.976,2.976,0,0,1,15.405,93.865Z" transform="translate(0 -81.884)" fill="#fff"/>
  </g>
</svg>
