<svg xmlns="http://www.w3.org/2000/svg" width="26.475" height="50" viewBox="0 0 26.475 50">
  <path id="Path_2559" data-name="Path 2559" d="M709.629,528.267a3.546,3.546,0,0,0-.039.63c.124.7.661,1.152.873,1.768.005.105.013.215.019.324a3.879,3.879,0,0,0,.447.832.963.963,0,0,1,.406,0v.062c-.048.04-.095.08-.141.121a7.811,7.811,0,0,1,.731,1.848c.181.795.152,1.473.384,2.213s.378,1.659.67,2.436q.508,1.167,1.015,2.333c.284.625,1.4,2.154,2.336,1.951a2.126,2.126,0,0,0,.547-.288c.271-.126.542-.257.814-.385q.506-.508,1.015-1.014,1.531-1.33,3.066-2.662c.339-.315,1.1-1.217,1.541-1.337.584,1.239,1.706,2.131,2.213,3.348a30.937,30.937,0,0,1,1.118,3.734,25.306,25.306,0,0,0,1.055,2.906,13.917,13.917,0,0,1,.629,1.444c.27.966.054,1.615.772,2.19-.075.23-.149.461-.223.69-.072.292.182.373.04.688-.147.331-.677,1.186-.487,1.606.233.517,1.453.938,1.99,1.217,1.272.668,1.479,1.579,3.31,1.888a1.444,1.444,0,0,0,1.318-.386v-.057c-.133-.1-.4-.765-.548-.958a5.673,5.673,0,0,0-.955-.75,3.657,3.657,0,0,1-.871-1.46v-.02c.2.063.315.323.446.466h.021v-.021c-.141-.264-.563-.643-.61-.894.248.153.958.448,1.28.288v-.146c-.868-.205-.863.169-1.3-.587a.145.145,0,0,1,.019-.038,3.288,3.288,0,0,1,.772.058c-.006-.013-.013-.029-.02-.04-.148-.039-.29-.129-.406-.166-.177.016-.354.029-.529.043v-.02c.062-.11.079-.221.182-.288.175-.089.458-.065.61-.161.076-.333.157-.708.2-1.055-.08-.067-.271-.315-.325-.347-.06-.007-.122-.01-.183-.018v-.386a2.909,2.909,0,0,0-.305-1.666c-.115-.31-.228-.622-.345-.938-.2-.368-.4-.742-.609-1.112-.107-.34-.216-.675-.324-1.016l-.549-.448c.023-1.512.13-3.861-1.1-4.26a1.1,1.1,0,0,0-.285-.529c-.074-.041-.148-.084-.223-.122-.054-.177-.109-.351-.162-.527-.108-.149-.216-.3-.325-.449v-.65c-.122-.6-.243-1.216-.365-1.827-.113-.394-.2-.839-.305-1.237l-.284-.609c-.014-.126-.028-.258-.041-.386-.039-.1-.154-.125-.2-.2a5.767,5.767,0,0,1-.3-.709c-.191-.581-.264-1.131-.488-1.686-.067-.013-.135-.03-.2-.042-.007-.229-.1-.264-.142-.447a.109.109,0,0,0,.019-.018,1.626,1.626,0,0,0,.509-.061,20.351,20.351,0,0,1,.568-3.046c.193-.889.183-1.838.324-2.718a11.376,11.376,0,0,1,1.138-3.594c.04-.151.08-.3.122-.449a5.162,5.162,0,0,1,.75-1.58,1.4,1.4,0,0,1,.732-.408l.425-.059c.2-.119.224-.464.406-.589.339-.158.679-.313,1.015-.469a11.237,11.237,0,0,0,2.579-2.173c.344-.362,1.066-.723,1.177-1.277.121-.6-.842-1.781-1.1-2.151a26.886,26.886,0,0,0-2.031-2.479,7.689,7.689,0,0,0-.831-.834c-.071-.058-.168-.008-.224-.082-.127-.161-.169-.358-.3-.507-.258-.21-.515-.417-.772-.629l-.264-.447c-.244-.18-.487-.364-.731-.547a1.253,1.253,0,0,0-1.117.266c-.111.169-.164.476-.284.629-.053.039-.108.082-.163.12-.006.094-.012.191-.019.285-.056.113-.148.1-.162.3.231.334.04.68.162.893a2.288,2.288,0,0,0,.893.549c.317-.063.7-.558,1.1-.386a2.153,2.153,0,0,1,.71.688c.215.27.544.514.75.794.19.255.275.529.468.792.06.041.121.08.181.119.124.279.245.557.367.834.137.267.585,1.025.405,1.341-.183.05-.462.007-.711.061a4.1,4.1,0,0,0-1.218.588c-.641.4-.742,1.112-1.766.954-.044.116-1.125.586-1.239.447l-.161-.021-.224.081c-.03.078-.052.2-.121.244-.284.1-.57.189-.854.283.073-.4.264-.794.326-1.239.007-.195.013-.391.021-.589a.933.933,0,0,0,.244-.527,3.812,3.812,0,0,0-.1-.974c.048-.109.1-.217.143-.326a12.476,12.476,0,0,0-.061-1.482c-.077-.279-.388-.422-.426-.731.066-.034.025.01.04-.062a.6.6,0,0,1-.264-.261l.164.018c-.123-.17-.308-.191-.528-.264.013-.039.026-.082.04-.121a1.174,1.174,0,0,1-.285-.164,16.43,16.43,0,0,0-1.869.042c-.543.186-.766.591-1.461.651.005.134-.111.209-.041.345.062.019.123.04.182.061v.02c-.067.008-.134.015-.2.019-.026.064-.054.123-.081.183h.163c-.219.269-.375.323-.508.67.135-.082.271-.161.406-.244-.142.15-.285.3-.426.446-.194.4.387,1.689.528,2.031.194.476.1.991.3,1.4a.622.622,0,0,1-.284.181.69.69,0,0,1-.042.447c-.108.062-.216.123-.325.183.029.393-.477.4-.791.53-.456.178-.843.462-1.28.626-.182.072-.527.03-.689.123-.025.132-.088.15-.163.223-.067-.023-.134-.042-.2-.062-.452.369-.808.918-1.279,1.258-.143.1-.285.19-.427.288-.186.248-.119.58-.243.811s-.567.5-.731.732c-.322.458-.612.975-.953,1.419-.322.422-1.239,1.429-1.1,2.214a4.768,4.768,0,0,0,.65,1.4c.121.283.243.57.366.854a19.862,19.862,0,0,0,1.946,2.619c.118.216.231.432.346.648a7.35,7.35,0,0,0,.61.591c-.021.127-.04.256-.059.384.217.044.287.293.3.446h-.082a.334.334,0,0,0-.222-.141c.062.4-.331,1.271-.346,1.888-.455.126-.227.577-.346,1.056a13.565,13.565,0,0,1-.853,2.072,2.494,2.494,0,0,1-.3.708c-.013,0-.027-.012-.043-.017-.12-.158-.242-.314-.364-.471a14.531,14.531,0,0,0-1.057-2.271c-.377-.7-.62-1.6-1.48-1.808-.023-.122-.068-.078-.1-.143v-.263a1.148,1.148,0,0,0-.18-.813,5.028,5.028,0,0,0,.121-1.544c-.151-.338-.668-.413-.994-.588-.3-.154-.352-.522-.61-.69A4.814,4.814,0,0,0,709.629,528.267Zm19.451-19.306c-.021.106-.04.216-.062.326-.118-.052-.271-.1-.3-.245h.041C728.863,509.015,728.971,508.989,729.08,508.962Zm-9.968,13.866c.059.081.121.163.181.245-.052.52-.108,1.041-.16,1.563-.008.343-.015.689-.021,1.035-.021.279-.042.554-.063.834a7.647,7.647,0,0,1,.122,2.637,7.132,7.132,0,0,1-1.663-2.273c-.088-.338-.177-.678-.264-1.016a3.405,3.405,0,0,1-.407-1.42,11.922,11.922,0,0,1,1.037-.691l.467-.162Z" transform="translate(-709.579 -506.839)" fill="#f9c545" fill-rule="evenodd"/>
</svg>
