<svg xmlns="http://www.w3.org/2000/svg" width="40.851" height="50" viewBox="0 0 40.851 50">
  <path id="Path_2560" data-name="Path 2560" d="M68.953,561.6c-1.446,0-2.5-2.168-2.724-2.446s0-.722-.611-1.112-2.446-1.834-2.613-2.723a42.689,42.689,0,0,1-.5-6.169c.111-1.167-.611-6.392-.445-7.392s-.444-2.279-.444-3.835.555-5.114.5-5.948-.778-2.612-.723-3.446a28.38,28.38,0,0,0,.5-4.613,6.778,6.778,0,0,0-2.5-4.558,11.45,11.45,0,0,1-2.445-2.222,4.556,4.556,0,0,0-3.334-1.39c-5.224-5.781-9,.278-9,.278-1.333-.555-3.279,1.446-3.946,2a14.853,14.853,0,0,1-3.056,2c-1.779.945-1.779,4.669-1.446,5.948a8.458,8.458,0,0,1-.377,4.157c-.476,1.751.18,2.831.18,3.664s.253,3.849-.136,4.628-.223,3.168-.445,3.945-.166,9.615-.166,10.505a5.884,5.884,0,0,1-.111,2.112c-.222.389-.056.945-.222,1.223a8.813,8.813,0,0,1-2.446,1.557c-1,.444-.556,1.222-.834,1.667a15.73,15.73,0,0,0-.778,2.279c-.167.5-.834.612-.834.612-2.334.722,1.223.889,1.779.61a11.5,11.5,0,0,0,1.889-2.333c.5-.389,1.667,1.723,1.667,1.723.334,1.333,1.779.833,1.779.833.834-.056.945-.723.278-.666s-.722-.723-.722-.723c-.5-.667.444-2.057.444-2.057.723-.889,1.056-3.445,1-4.335a50.523,50.523,0,0,1,.5-5.892c.166-.778,1-6.614,1-6.614a5.98,5.98,0,0,0,.278-2.946c.389-.833.668-5.835.668-7s.222-4.614.222-4.614-.445,2.724,0-.222,2.056-1.278,2.056-1.278c.612.278.89,2.223.89,2.223-1.613.556-2.167,4.78-2.167,4.78-1.223,2.279-.056,5.725-.056,5.725a2.667,2.667,0,0,0,0,1.167c-2.334.778,1.056,7.169,1.056,7.169a6.792,6.792,0,0,0-.612,3.391c.111.5.111-.335-.723,2.944a4.178,4.178,0,0,0,1.557,4.725l2.334-.222c1.223-.612,1.667-3.391.945-4.725s.223-3.724.223-3.724a3.5,3.5,0,0,0-.223-3.112,1.189,1.189,0,0,1-.166-1.168c3.113-1.112,1.723-3.724,1.723-3.724.389-.222.778-1.5.778-1.5.556-.221,1.167-1.612,1.167-1.612a1.573,1.573,0,0,0,.667-.055c-1.112,2.668.945,8.059,1.112,8.448a19.329,19.329,0,0,1,.445,4.446,26.929,26.929,0,0,0,.166,3.669,12.375,12.375,0,0,1,.779,1.834,2.488,2.488,0,0,0,3.167,1.278c.889-.39,1.223-2.445,1.445-3.835.218-1.366,1.208-7.43,1.242-7.641.016.034.03.07.047.112a37.3,37.3,0,0,1,1.49,7.807c-.168.89.278,1.946.333,1.779s.889,3.5,1,4.057a.7.7,0,0,1-.333.778c-1.834.945.834.889,1.279.722s.278-.388.333-1.111,1-1.056,1-1.056c.945-.389,2.724,2.112,2.724,2.112.833.666,3.056-.055,3.056-.055C71.009,561.932,68.953,561.6,68.953,561.6ZM57.114,529.7c-.111-.221-.778-1.333-.945-1.611s.444-.612.444-.612C57.559,527.639,57.114,529.7,57.114,529.7Zm1.39,17.453a.829.829,0,0,1,.065.119C58.5,547.168,58.1,546.586,58.5,547.148Z" transform="translate(-29.205 -513.246)" fill="#fe5656"/>
</svg>
