<svg xmlns="http://www.w3.org/2000/svg" width="17" height="13.813" viewBox="0 0 17 13.813">
  <path id="Icon_awesome-list-ul" data-name="Icon awesome-list-ul" d="M1.594,3.375A1.594,1.594,0,1,0,3.188,4.969,1.594,1.594,0,0,0,1.594,3.375Zm0,5.313a1.594,1.594,0,1,0,1.594,1.594A1.594,1.594,0,0,0,1.594,8.688Zm0,5.313a1.594,1.594,0,1,0,1.594,1.594A1.594,1.594,0,0,0,1.594,14Zm14.875.531H5.844a.531.531,0,0,0-.531.531v1.063a.531.531,0,0,0,.531.531H16.469A.531.531,0,0,0,17,16.125V15.063A.531.531,0,0,0,16.469,14.531Zm0-10.625H5.844a.531.531,0,0,0-.531.531V5.5a.531.531,0,0,0,.531.531H16.469A.531.531,0,0,0,17,5.5V4.438A.531.531,0,0,0,16.469,3.906Zm0,5.313H5.844a.531.531,0,0,0-.531.531v1.063a.531.531,0,0,0,.531.531H16.469A.531.531,0,0,0,17,10.813V9.75A.531.531,0,0,0,16.469,9.219Z" transform="translate(0 -3.375)" fill="#fff"/>
</svg>
