<svg xmlns="http://www.w3.org/2000/svg" width="52.607" height="50" viewBox="0 0 52.607 50">
  <path id="Path_2558" data-name="Path 2558" d="M25.956,694.238c.264.378,1.282.415,1.924.339,0,0,2.754.114,3.583.114,0,0,3.471.452,3.961-.415a2.361,2.361,0,0,1,1.961-.452s1.17.679,1.4.83c0,0,3.658.151,1.244-.792,0,0-.98-.679-1.545-.981s-1.019-1.885-1.472-2.451a2.512,2.512,0,0,1-.6-2.226c.3-.642.717-1.433.717-1.433a19.212,19.212,0,0,0,2.452.075,1.826,1.826,0,0,1,1.094-.038s2.716.415,3.469-1.093c0,0,.6-.643.794-.793a5.75,5.75,0,0,0,1.056-2.866c.039-1.245-.263-6.036-.227-6.791s.794-5.056.53-5.621c0,0,.413-1.434.941-.981,0,0,4.225,4.564,5.584,5.168a9.783,9.783,0,0,0,1.132,1.509s-3.622,3.319-4.075,5.734a20.657,20.657,0,0,1-1.546,3.244c-.566.717-.566.943-.566.943s-.6-.226-.83.641a6.253,6.253,0,0,1-.869,2.3c-.413.453-1.17.528-.376,1.547a15.276,15.276,0,0,0,1.773,1.81c.415.226.265.529.189,1.056,0,0-.454,1.245,2.376,1.245,0,0,3.018.076,3.168-.528a2.205,2.205,0,0,0-.566-1.962,7.049,7.049,0,0,1-1.32-2.452c-.226-1.132-.265-1.395-.265-1.395s.34-1.208-.339-1.321c0,0,4.075-3.81,4.943-4.337s3.772-3.622,3.733-4.225c0,0,2.491-4,1.1-6.149s-1.019-4.113-1.923-4.641a8.354,8.354,0,0,0,1.546-1.282,5.115,5.115,0,0,0,2.074-.114s.906.076.906.717,1.094,6.035,1.433,7.205a30.123,30.123,0,0,1,.868,4.036,23.9,23.9,0,0,0,2.112,5.206,41.63,41.63,0,0,1,2.113,4.9c.263.867,1.018,1.923.9,2.753s-.263,2.15-.263,2.49a1.1,1.1,0,0,1-.64,1.094c-.567.265-.944.415-.341.755,0,0,1.018.188,1.4-.152a1.524,1.524,0,0,1,1.848-.151,9.257,9.257,0,0,0,1.887.377,19.918,19.918,0,0,0,3.62-.151s1.244-.151-.112-.679c0,0-.982-.112-1.51-.112s-.829-.453-1.471-.34-.491-.038-1.018-.679a13.313,13.313,0,0,1-1.17-3.81,3.62,3.62,0,0,0-.227-1.245c-.151-.264-.641-3.961-.792-4.828a23.421,23.421,0,0,0-.642-3.245c-.263-.641.151-2.6-1.094-4.187A7.579,7.579,0,0,1,68.318,671a28.845,28.845,0,0,0-.68-3.809c-.15-.566.152-2.943-.678-5.169s-1.81-3.922-2.679-4.262l.114.037s1.358-1.848,1.244-3.167a5.4,5.4,0,0,1,.529-.983s2.226-3.847-.114-6.449c0,0-3.168-4.112-7.62-1.547,0,0-2.715,2.151-2.9,4.9,0,0-.906.528-.151,3.206,0,0-2.641-1.32-4.226-.754,0,0-3.809.98-5.846,2.829,0,0-3.7,2.073-5.282,4.413a12.119,12.119,0,0,0-2.188,6.789c-.037,2.189-.415,2.641.152,2.906,0,0,.566,4.3.64,4.98,0,0-3.28,6.261-3.506,7.807a.927.927,0,0,1-1.058.453s-.339-.453-1.471-.114a1.452,1.452,0,0,1-.754-.075,1.34,1.34,0,0,0-1.7.641c-.378.868.038,2.868.263,3.961a7.087,7.087,0,0,1-.113,2.491,3.225,3.225,0,0,0,.792,2.073,1.878,1.878,0,0,1-.943.793c-.6.188-1.811.339-2.339.527S25.692,693.861,25.956,694.238Zm12.83-11.253a6.194,6.194,0,0,0,.746-1.029l0-.011a.032.032,0,0,1,0,.011c-.027.09-.224.756-.081.978A1.183,1.183,0,0,0,38.786,682.985Z" transform="translate(-25.926 -644.809)" fill="#23d691"/>
</svg>
