<svg xmlns="http://www.w3.org/2000/svg" width="17" height="17" viewBox="0 0 17 17">
  <path id="Icon_ionic-md-settings" data-name="Icon ionic-md-settings" d="M18.33,12.725a5.315,5.315,0,0,0,.043-.85c0-.3-.043-.552-.043-.85l1.825-1.4a.39.39,0,0,0,.087-.552L18.5,6.137a.423.423,0,0,0-.522-.17l-2.173.85a6.327,6.327,0,0,0-1.478-.85l-.3-2.252a.466.466,0,0,0-.435-.34H10.114a.466.466,0,0,0-.435.34L9.332,5.967a7.361,7.361,0,0,0-1.478.85L5.68,5.967a.407.407,0,0,0-.522.17L3.42,9.07a.513.513,0,0,0,.087.552l1.869,1.4c0,.3-.043.552-.043.85s.043.552.043.85l-1.825,1.4a.39.39,0,0,0-.087.552L5.2,17.612a.423.423,0,0,0,.522.17l2.173-.85a6.326,6.326,0,0,0,1.478.85l.348,2.252a.421.421,0,0,0,.435.34h3.478a.466.466,0,0,0,.435-.34l.348-2.252a7.357,7.357,0,0,0,1.478-.85l2.173.85a.407.407,0,0,0,.522-.17L20.33,14.68a.513.513,0,0,0-.087-.552ZM11.853,14.85A2.976,2.976,0,1,1,14.9,11.875,2.991,2.991,0,0,1,11.853,14.85Z" transform="translate(-3.375 -3.375)" fill="#ebebeb"/>
</svg>
