<svg xmlns="http://www.w3.org/2000/svg" width="47.012" height="50" viewBox="0 0 47.012 50">
  <path id="Union_100" data-name="Union 100" d="M381.152,1625c-.041,0-.08,0-.121,0a22.513,22.513,0,0,1-5.048-.577.833.833,0,1,1,.372-1.625,21.08,21.08,0,0,0,3.98.515v-1.647a.833.833,0,0,1,1.667,0v1.64a20.679,20.679,0,0,0,8.713-2.371l-.822-1.423a.833.833,0,0,1,1.444-.833l.819,1.419a21,21,0,0,0,6.477-6.476l-1.42-.82a.833.833,0,0,1,.834-1.443l1.422.822a20.691,20.691,0,0,0,2.375-8.849H400.2a.833.833,0,0,1,0-1.667h1.646a20.685,20.685,0,0,0-2.375-8.849l-1.422.821a.834.834,0,0,1-.835-1.443l1.419-.82a20.989,20.989,0,0,0-6.476-6.476l-.819,1.419a.833.833,0,1,1-1.444-.833l.822-1.423a20.68,20.68,0,0,0-8.714-2.371v1.642a.833.833,0,1,1-1.666,0v-1.648c-.245.012-.5.027-.77.048l-.894.069a21.051,21.051,0,0,0-2.317.4.833.833,0,0,1-.373-1.625,23.008,23.008,0,0,1,2.687-.446v-.963h-1.25a2.083,2.083,0,1,1,0-4.167h7.5a2.083,2.083,0,1,1,0,4.167h-1.25v.992a22.336,22.336,0,0,1,8.561,2.837c.017.009.035.008.053.017s.026.027.041.037a22.668,22.668,0,0,1,4.008,2.972l1.789-1.79-1.179-1.178,3.536-3.536,3.535,3.536-3.535,3.535-1.178-1.178-1.79,1.79a22.621,22.621,0,0,1,2.971,4.007c.011.016.027.025.037.042s.009.035.017.054a22.411,22.411,0,0,1,0,22.393c-.008.017-.008.035-.017.053a.8.8,0,0,1-.05.064,22.657,22.657,0,0,1-8.144,8.135c-.016.01-.025.026-.041.037s-.052.021-.079.033A22.364,22.364,0,0,1,381.185,1625c-.006,0-.012,0-.019,0S381.158,1625,381.152,1625Zm18.145-41.941,1.18,1.178,1.178-1.178-1.178-1.179Zm-17.3-3.037V1577.5h2.917a.417.417,0,0,0,0-.834h-7.5a.417.417,0,1,0,0,.834h2.917v2.518c.1,0,.191,0,.287-.006.137,0,.274-.011.41-.011h.136C381.433,1580,381.71,1580.005,382,1580.017ZM367.833,1617.5a.833.833,0,0,1,0-1.667h5.834a.833.833,0,0,1,0,1.667Zm-5-5.833a.833.833,0,0,1,0-1.667h10.834a.833.833,0,0,1,0,1.667Zm16.7-5.87a2.969,2.969,0,0,1,.353-4.5l10.788-7.805a.834.834,0,0,1,1.164,1.165l-7.8,10.786a2.966,2.966,0,0,1-2.172,1.216c-.078.006-.155.009-.233.009A2.959,2.959,0,0,1,379.537,1605.8Zm1.331-3.152a1.3,1.3,0,1,0,1.822,1.818l4.76-6.579Zm-23.035,3.189a.833.833,0,0,1,0-1.667h15.833a.833.833,0,0,1,0,1.667Zm3.333-5.834a.833.833,0,1,1,0-1.667h12.5a.833.833,0,0,1,0,1.667Zm4.167-5.833a.833.833,0,0,1,0-1.667h8.333a.833.833,0,0,1,0,1.667Zm4.166-5.833a.833.833,0,1,1,0-1.666h4.167a.833.833,0,1,1,0,1.666Z" transform="translate(-357 -1575)" fill="#0097cf"/>
</svg>
